<?xml version="1.0" encoding="UTF-8"?>
<svg width="44px" height="45px" viewBox="0 0 44 45" version="1.1" xmlns="http://www.w3.org/2000/svg" xmlns:xlink="http://www.w3.org/1999/xlink">
    <!-- Generator: Sketch 48.2 (47327) - http://www.bohemiancoding.com/sketch -->
    <title>IntensityIcon</title>
    <desc>Created with Sketch.</desc>
    <defs></defs>
    <g id="HomeScreen" stroke="none" stroke-width="1" fill="none" fill-rule="evenodd" transform="translate(-115.000000, -156.000000)">
        <g id="BiGIcon_03_ON" transform="translate(29.000000, 94.000000)">
            <g id="IntensityIcon" transform="translate(85.956321, 62.047004)">
                <path d="M22.0227236,8.65343852 C23.1290581,8.65343852 24.0235777,7.82527136 24.0235777,6.80440923 L24.0235777,2.5024678 C24.0235777,1.48107919 23.1290581,0.653438517 22.0227236,0.653438517 C20.9180972,0.653438517 20.0235777,1.48107919 20.0235777,2.5024678 L20.0235777,6.80440923 C20.0235777,7.82527136 20.9180972,8.65343852 22.0227236,8.65343852" id="Fill-78" fill="#FFFFFF"></path>
                <path d="M22.0159223,44.3229838 C23.1222568,44.3229838 24.0167764,43.4948167 24.0167764,42.4739545 L24.0167764,38.1720131 C24.0167764,37.1506245 23.1222568,36.3229838 22.0159223,36.3229838 C20.911296,36.3229838 20.0167764,37.1506245 20.0167764,38.1720131 L20.0167764,42.4739545 C20.0167764,43.4948167 20.911296,44.3229838 22.0159223,44.3229838" id="Fill-78" fill="#FFFFFF"></path>
                <path d="M10.7752587,11.2557157 C11.1247999,11.7423236 11.668136,12 12.2200965,12 C12.5818133,12 12.9486033,11.8881007 13.2651689,11.655576 C14.0606414,11.0709278 14.2382022,9.94372206 13.6603685,9.13835508 L11.224234,5.74390525 C10.6448783,4.93956487 9.53284024,4.75785684 8.73483115,5.34455821 C7.93935864,5.92869308 7.76179781,7.05641216 8.33963147,7.86177913 L10.7752587,11.2557157" id="Fill-79" fill="#FFFFFF"></path>
                <path d="M33.3902844,33.8943285 C32.812518,33.0894099 31.6990876,32.9107673 30.9016786,33.4954626 C30.1073132,34.0811846 29.9297731,35.2084813 30.5090612,36.0139132 L32.946434,39.4081235 C33.2939055,39.8932307 33.8366711,40.1514412 34.3885674,40.1514412 C34.7517638,40.1514412 35.1174965,40.0395328 35.4340253,39.8075027 C36.2294052,39.2217807 36.4064381,38.0939707 35.8276572,37.2885388 L33.3902844,33.8943285" id="Fill-80" fill="#FFFFFF"></path>
                <path d="M2.64488212,15.0603455 C1.6384183,14.7463766 0.576820586,15.2748909 0.251963038,16.2403452 C-0.072894511,17.2047529 0.472498611,18.2424201 1.46977345,18.556389 L5.67130045,19.8792445 C5.86751224,19.9399452 6.06372404,19.9697722 6.25831425,19.9697722 C7.05937729,19.9697722 7.8026038,19.4763178 8.06421953,18.6992448 C8.38907708,17.7343138 7.84368395,16.6971699 6.84640912,16.383201 L2.64488212,15.0603455 Z" id="Fill-81" fill="#FFFFFF"></path>
                <path d="M42.0774589,27.6542701 L37.8765991,26.3327328 C36.8786854,26.0206741 35.8088743,26.5479277 35.4845254,27.5129012 C35.1601764,28.4794455 35.707245,29.5166742 36.7040775,29.8308272 L40.9060185,31.1523645 C41.1006279,31.2136243 41.296859,31.2429453 41.492009,31.2429453 C42.2926104,31.2429453 43.0359101,30.7481542 43.2975517,29.9716725 C43.6219006,29.0051283 43.0753726,27.9684231 42.0774589,27.6542701" id="Fill-82" fill="#FFFFFF"></path>
                <path d="M5.89285743,25.274755 L1.69038835,26.5946272 C0.693274732,26.9083587 0.146348457,27.9454012 0.471153488,28.91226 C0.73056516,29.6900419 1.47529284,30.184994 2.27622637,30.184994 C2.4691638,30.184994 2.66750564,30.1551398 2.86260484,30.09386 L7.06399305,28.7739877 C8.0616471,28.4602562 8.60857338,27.4226899 8.28376835,26.4563549 C7.96166552,25.4905436 6.89915855,24.9625947 5.89285743,25.274755" id="Fill-83" fill="#FFFFFF"></path>
                <path d="M37.8995472,20 C38.0946972,20 38.2909283,19.9701583 38.4855377,19.9094277 L42.6863975,18.5874905 C43.6843112,18.2733668 44.2308392,17.2362352 43.9064903,16.2708284 C43.5821413,15.3054216 42.5069244,14.7776938 41.5149571,15.0897234 L37.3130161,16.4116605 C36.3161836,16.7257842 35.769115,17.7629159 36.093464,18.7288462 C36.3545649,19.5052552 37.0989458,20 37.8995472,20" id="Fill-84" fill="#FFFFFF"></path>
                <path d="M10.7792017,33.7434658 L8.34104089,37.1361007 C7.7620474,37.9415243 7.93797625,39.0693226 8.73447253,39.6550385 C9.04931925,39.8880928 9.41587992,40 9.7788916,40 C10.3305071,40 10.8729966,39.7428189 11.2207983,39.2577167 L13.6589591,35.8650818 C14.2379526,35.0596582 14.0620238,33.9318599 13.2655275,33.3466574 C12.4730872,32.7578614 11.3546462,32.9380422 10.7792017,33.7434658" id="Fill-85" fill="#FFFFFF"></path>
                <path d="M32.7758677,5.74502405 L30.3396439,9.13886684 C29.7617891,9.94408979 29.9393564,11.071094 30.7348581,11.6556376 C31.0514352,11.8881207 31.4182386,12 31.7799686,12 C32.3319494,12 32.8747981,11.7423697 33.224352,11.2558488 L35.6605758,7.86251919 C36.2379233,7.05729624 36.0608633,5.92977883 35.2653617,5.34574842 C34.4647867,4.75761235 33.3552445,4.93877468 32.7758677,5.74502405" id="Fill-86" fill="#FFFFFF"></path>
                <ellipse id="Oval" stroke="#FFFFFF" stroke-width="3" cx="22" cy="22.5" rx="9.5" ry="9"></ellipse>
            </g>
        </g>
    </g>
</svg>